<svg width="188" height="42" viewBox="0 0 188 42" fill="none" xmlns="http://www.w3.org/2000/svg">
<path d="M50.3047 21.7676H43.7305L43.6953 18.1465H49.2148C50.1875 18.1465 50.9844 18.0234 51.6055 17.7773C52.2266 17.5195 52.6895 17.1504 52.9941 16.6699C53.3105 16.1777 53.4688 15.5801 53.4688 14.877C53.4688 14.0801 53.3164 13.4355 53.0117 12.9434C52.7188 12.4512 52.2559 12.0938 51.623 11.8711C51.002 11.6484 50.1992 11.5371 49.2148 11.5371H45.5586V33H40.2852V7.40625H49.2148C50.7031 7.40625 52.0332 7.54688 53.2051 7.82812C54.3887 8.10938 55.3906 8.53711 56.2109 9.11133C57.0312 9.68555 57.6582 10.4121 58.0918 11.291C58.5254 12.1582 58.7422 13.1895 58.7422 14.3848C58.7422 15.4395 58.502 16.4121 58.0215 17.3027C57.5527 18.1934 56.8086 18.9199 55.7891 19.4824C54.7812 20.0449 53.4629 20.3555 51.834 20.4141L50.3047 21.7676ZM50.0762 33H42.2891L44.3457 28.8867H50.0762C51.002 28.8867 51.7578 28.7402 52.3438 28.4473C52.9297 28.1426 53.3633 27.7324 53.6445 27.2168C53.9258 26.7012 54.0664 26.1094 54.0664 25.4414C54.0664 24.6914 53.9375 24.041 53.6797 23.4902C53.4336 22.9395 53.0352 22.5176 52.4844 22.2246C51.9336 21.9199 51.207 21.7676 50.3047 21.7676H45.2246L45.2598 18.1465H51.5879L52.8008 19.5703C54.3594 19.5469 55.6133 19.8223 56.5625 20.3965C57.5234 20.959 58.2207 21.6914 58.6543 22.5938C59.0996 23.4961 59.3223 24.4629 59.3223 25.4941C59.3223 27.1348 58.9648 28.5176 58.25 29.6426C57.5352 30.7559 56.4863 31.5938 55.1035 32.1562C53.7324 32.7188 52.0566 33 50.0762 33ZM74.2109 28.4473V13.9805H79.2734V33H74.5098L74.2109 28.4473ZM74.7734 24.5449L76.2676 24.5098C76.2676 25.7754 76.1211 26.9531 75.8281 28.043C75.5352 29.1211 75.0957 30.0586 74.5098 30.8555C73.9238 31.6406 73.1855 32.2559 72.2949 32.7012C71.4043 33.1348 70.3555 33.3516 69.1484 33.3516C68.2227 33.3516 67.3672 33.2227 66.582 32.9648C65.8086 32.6953 65.1406 32.2793 64.5781 31.7168C64.0273 31.1426 63.5938 30.4102 63.2773 29.5195C62.9727 28.6172 62.8203 27.5332 62.8203 26.2676V13.9805H67.8828V26.3027C67.8828 26.8652 67.9473 27.3398 68.0762 27.7266C68.2168 28.1133 68.4102 28.4297 68.6562 28.6758C68.9023 28.9219 69.1895 29.0977 69.5176 29.2031C69.8574 29.3086 70.2324 29.3613 70.6426 29.3613C71.6855 29.3613 72.5059 29.1504 73.1035 28.7285C73.7129 28.3066 74.1406 27.7324 74.3867 27.0059C74.6445 26.2676 74.7734 25.4473 74.7734 24.5449ZM93.4238 27.7441C93.4238 27.3809 93.3184 27.0527 93.1074 26.7598C92.8965 26.4668 92.5039 26.1973 91.9297 25.9512C91.3672 25.6934 90.5527 25.459 89.4863 25.248C88.5254 25.0371 87.6289 24.7734 86.7969 24.457C85.9766 24.1289 85.2617 23.7363 84.6523 23.2793C84.0547 22.8223 83.5859 22.2832 83.2461 21.6621C82.9062 21.0293 82.7363 20.3086 82.7363 19.5C82.7363 18.7031 82.9062 17.9531 83.2461 17.25C83.5977 16.5469 84.0957 15.9258 84.7402 15.3867C85.3965 14.8359 86.1934 14.4082 87.1309 14.1035C88.0801 13.7871 89.1465 13.6289 90.3301 13.6289C91.9824 13.6289 93.4004 13.8926 94.584 14.4199C95.7793 14.9473 96.6934 15.6738 97.3262 16.5996C97.9707 17.5137 98.293 18.5566 98.293 19.7285H93.2305C93.2305 19.2363 93.125 18.7969 92.9141 18.4102C92.7148 18.0117 92.3984 17.7012 91.9648 17.4785C91.543 17.2441 90.9922 17.127 90.3125 17.127C89.75 17.127 89.2637 17.2266 88.8535 17.4258C88.4434 17.6133 88.127 17.8711 87.9043 18.1992C87.6934 18.5156 87.5879 18.8672 87.5879 19.2539C87.5879 19.5469 87.6465 19.8105 87.7637 20.0449C87.8926 20.2676 88.0977 20.4727 88.3789 20.6602C88.6602 20.8477 89.0234 21.0234 89.4688 21.1875C89.9258 21.3398 90.4883 21.4805 91.1562 21.6094C92.5273 21.8906 93.752 22.2598 94.8301 22.7168C95.9082 23.1621 96.7637 23.7715 97.3965 24.5449C98.0293 25.3066 98.3457 26.3086 98.3457 27.5508C98.3457 28.3945 98.1582 29.168 97.7832 29.8711C97.4082 30.5742 96.8691 31.1895 96.166 31.7168C95.4629 32.2324 94.6191 32.6367 93.6348 32.9297C92.6621 33.2109 91.5664 33.3516 90.3477 33.3516C88.5781 33.3516 87.0781 33.0352 85.8477 32.4023C84.6289 31.7695 83.7031 30.9668 83.0703 29.9941C82.4492 29.0098 82.1387 28.002 82.1387 26.9707H86.9375C86.9609 27.6621 87.1367 28.2188 87.4648 28.6406C87.8047 29.0625 88.2324 29.3672 88.748 29.5547C89.2754 29.7422 89.8438 29.8359 90.4531 29.8359C91.1094 29.8359 91.6543 29.748 92.0879 29.5723C92.5215 29.3848 92.8496 29.1387 93.0723 28.834C93.3066 28.5176 93.4238 28.1543 93.4238 27.7441ZM109.49 29.3965C110.111 29.3965 110.662 29.2793 111.143 29.0449C111.623 28.7988 111.998 28.459 112.268 28.0254C112.549 27.5801 112.695 27.0586 112.707 26.4609H117.471C117.459 27.7969 117.102 28.9863 116.398 30.0293C115.695 31.0605 114.752 31.875 113.568 32.4727C112.385 33.0586 111.061 33.3516 109.596 33.3516C108.119 33.3516 106.83 33.1055 105.729 32.6133C104.639 32.1211 103.73 31.4414 103.004 30.5742C102.277 29.6953 101.732 28.6758 101.369 27.5156C101.006 26.3438 100.824 25.0898 100.824 23.7539V23.2441C100.824 21.8965 101.006 20.6426 101.369 19.4824C101.732 18.3105 102.277 17.291 103.004 16.4238C103.73 15.5449 104.639 14.8594 105.729 14.3672C106.818 13.875 108.096 13.6289 109.561 13.6289C111.119 13.6289 112.484 13.9277 113.656 14.5254C114.84 15.123 115.766 15.9785 116.434 17.0918C117.113 18.1934 117.459 19.5 117.471 21.0117H112.707C112.695 20.3789 112.561 19.8047 112.303 19.2891C112.057 18.7734 111.693 18.3633 111.213 18.0586C110.744 17.7422 110.164 17.584 109.473 17.584C108.734 17.584 108.131 17.7422 107.662 18.0586C107.193 18.3633 106.83 18.7852 106.572 19.3242C106.314 19.8516 106.133 20.4551 106.027 21.1348C105.934 21.8027 105.887 22.5059 105.887 23.2441V23.7539C105.887 24.4922 105.934 25.2012 106.027 25.8809C106.121 26.5605 106.297 27.1641 106.555 27.6914C106.824 28.2188 107.193 28.6348 107.662 28.9395C108.131 29.2441 108.74 29.3965 109.49 29.3965ZM130.672 28.7109V20.2383C130.672 19.6289 130.572 19.1074 130.373 18.6738C130.174 18.2285 129.863 17.8828 129.441 17.6367C129.031 17.3906 128.498 17.2676 127.842 17.2676C127.279 17.2676 126.793 17.3672 126.383 17.5664C125.973 17.7539 125.656 18.0293 125.434 18.3926C125.211 18.7441 125.1 19.1602 125.1 19.6406H120.037C120.037 18.832 120.225 18.0645 120.6 17.3379C120.975 16.6113 121.52 15.9727 122.234 15.4219C122.949 14.8594 123.799 14.4199 124.783 14.1035C125.779 13.7871 126.893 13.6289 128.123 13.6289C129.6 13.6289 130.912 13.875 132.061 14.3672C133.209 14.8594 134.111 15.5977 134.768 16.582C135.436 17.5664 135.77 18.7969 135.77 20.2734V28.4121C135.77 29.4551 135.834 30.3105 135.963 30.9785C136.092 31.6348 136.279 32.209 136.525 32.7012V33H131.41C131.164 32.4844 130.977 31.8398 130.848 31.0664C130.73 30.2812 130.672 29.4961 130.672 28.7109ZM131.34 21.416L131.375 24.2812H128.545C127.877 24.2812 127.297 24.3574 126.805 24.5098C126.312 24.6621 125.908 24.8789 125.592 25.1602C125.275 25.4297 125.041 25.7461 124.889 26.1094C124.748 26.4727 124.678 26.8711 124.678 27.3047C124.678 27.7383 124.777 28.1309 124.977 28.4824C125.176 28.8223 125.463 29.0918 125.838 29.291C126.213 29.4785 126.652 29.5723 127.156 29.5723C127.918 29.5723 128.58 29.4199 129.143 29.1152C129.705 28.8105 130.139 28.4355 130.443 27.9902C130.76 27.5449 130.924 27.123 130.936 26.7246L132.271 28.8691C132.084 29.3496 131.826 29.8477 131.498 30.3633C131.182 30.8789 130.777 31.3652 130.285 31.8223C129.793 32.2676 129.201 32.6367 128.51 32.9297C127.818 33.2109 126.998 33.3516 126.049 33.3516C124.842 33.3516 123.746 33.1113 122.762 32.6309C121.789 32.1387 121.016 31.4648 120.441 30.6094C119.879 29.7422 119.598 28.7578 119.598 27.6562C119.598 26.6602 119.785 25.7754 120.16 25.002C120.535 24.2285 121.086 23.5781 121.812 23.0508C122.551 22.5117 123.471 22.1074 124.572 21.8379C125.674 21.5566 126.951 21.416 128.404 21.416H131.34ZM144.629 18.041V33H139.566V13.9805H144.312L144.629 18.041ZM143.891 22.8223H142.52C142.52 21.416 142.701 20.1504 143.064 19.0254C143.428 17.8887 143.938 16.9219 144.594 16.125C145.25 15.3164 146.029 14.7012 146.932 14.2793C147.846 13.8457 148.865 13.6289 149.99 13.6289C150.881 13.6289 151.695 13.7578 152.434 14.0156C153.172 14.2734 153.805 14.6836 154.332 15.2461C154.871 15.8086 155.281 16.5527 155.562 17.4785C155.855 18.4043 156.002 19.5352 156.002 20.8711V33H150.904V20.8535C150.904 20.0098 150.787 19.3535 150.553 18.8848C150.318 18.416 149.973 18.0879 149.516 17.9004C149.07 17.7012 148.52 17.6016 147.863 17.6016C147.184 17.6016 146.592 17.7363 146.088 18.0059C145.596 18.2754 145.186 18.6504 144.857 19.1309C144.541 19.5996 144.301 20.1504 144.137 20.7832C143.973 21.416 143.891 22.0957 143.891 22.8223ZM171.084 28.8516V6H176.182V33H171.594L171.084 28.8516ZM159.061 23.7188V23.3496C159.061 21.8965 159.225 20.5781 159.553 19.3945C159.881 18.1992 160.361 17.1738 160.994 16.3184C161.627 15.4629 162.406 14.8008 163.332 14.332C164.258 13.8633 165.312 13.6289 166.496 13.6289C167.609 13.6289 168.582 13.8633 169.414 14.332C170.258 14.8008 170.973 15.4688 171.559 16.3359C172.156 17.1914 172.637 18.2051 173 19.377C173.363 20.5371 173.627 21.8086 173.791 23.1914V24C173.627 25.3242 173.363 26.5547 173 27.6914C172.637 28.8281 172.156 29.8242 171.559 30.6797C170.973 31.5234 170.258 32.1797 169.414 32.6484C168.57 33.1172 167.586 33.3516 166.461 33.3516C165.277 33.3516 164.223 33.1113 163.297 32.6309C162.383 32.1504 161.609 31.4766 160.977 30.6094C160.355 29.7422 159.881 28.7227 159.553 27.5508C159.225 26.3789 159.061 25.1016 159.061 23.7188ZM164.123 23.3496V23.7188C164.123 24.5039 164.182 25.2363 164.299 25.916C164.428 26.5957 164.633 27.1992 164.914 27.7266C165.207 28.2422 165.582 28.6465 166.039 28.9395C166.508 29.2207 167.076 29.3613 167.744 29.3613C168.611 29.3613 169.326 29.168 169.889 28.7812C170.451 28.3828 170.879 27.8379 171.172 27.1465C171.477 26.4551 171.652 25.6582 171.699 24.7559V22.4531C171.664 21.7148 171.559 21.0527 171.383 20.4668C171.219 19.8691 170.973 19.3594 170.645 18.9375C170.328 18.5156 169.93 18.1875 169.449 17.9531C168.98 17.7188 168.424 17.6016 167.779 17.6016C167.123 17.6016 166.561 17.7539 166.092 18.0586C165.623 18.3516 165.242 18.7559 164.949 19.2715C164.668 19.7871 164.457 20.3965 164.316 21.0996C164.188 21.791 164.123 22.541 164.123 23.3496ZM185.48 13.9805V33H180.4V13.9805H185.48ZM180.084 9.02344C180.084 8.28516 180.342 7.67578 180.857 7.19531C181.373 6.71484 182.064 6.47461 182.932 6.47461C183.787 6.47461 184.473 6.71484 184.988 7.19531C185.516 7.67578 185.779 8.28516 185.779 9.02344C185.779 9.76172 185.516 10.3711 184.988 10.8516C184.473 11.332 183.787 11.5723 182.932 11.5723C182.064 11.5723 181.373 11.332 180.857 10.8516C180.342 10.3711 180.084 9.76172 180.084 9.02344Z" fill="#715595"/>
<rect y="5" width="33" height="33" rx="7" fill="#D9D9D9"/>
<circle cx="16.5" cy="21.5" r="12.5" fill="#725693"/>
<circle cx="16.5" cy="21.5" r="8.5" fill="#31115A"/>
<circle cx="20.5" cy="17.5" r="4.5" fill="white"/>
</svg>
